<?xml version="1.0" encoding="UTF-8"?>
<svg version="1.1" xmlns="http://www.w3.org/2000/svg" width="1200" height="476">
<path d="M0 0 C3.45405839 1.29751591 6.53113236 2.8044157 9.67578125 4.73046875 C10.57466064 5.27888428 11.47354004 5.8272998 12.3996582 6.39233398 C13.360896 6.98473877 14.32213379 7.57714355 15.3125 8.1875 C16.31563232 8.80246338 17.31876465 9.41742676 18.35229492 10.05102539 C21.57169039 12.0284079 24.78645257 14.01312927 28 16 C29.07636719 16.66451172 30.15273438 17.32902344 31.26171875 18.01367188 C34.44823172 19.98362109 37.63117248 21.95918919 40.8125 23.9375 C41.78292236 24.53908936 42.75334473 25.14067871 43.75317383 25.76049805 C46.51604806 27.48613201 49.2602261 29.23796794 52 31 C52.88945313 31.55518311 53.77890625 32.11036621 54.6953125 32.68237305 C60.79278651 36.6618433 64.53987313 40.79069471 68.375 46.9375 C69.4805098 48.62017633 70.58863548 50.30113663 71.69921875 51.98046875 C72.24755371 52.81884277 72.79588867 53.6572168 73.36083984 54.52099609 C82.3950987 68.28457007 82.3950987 68.28457007 94.9296875 78.6796875 C97.59324536 80.37833384 99.32459904 82.33458937 101 85 C101 85.66 101 86.32 101 87 C101.886875 86.5875 102.77375 86.175 103.6875 85.75 C104.780625 85.5025 105.87375 85.255 107 85 C110.90064532 87.5231447 112.96516734 90.15387342 115.09375 94.234375 C115.64337402 95.27287598 116.19299805 96.31137695 116.75927734 97.38134766 C117.33371582 98.49300293 117.9081543 99.6046582 118.5 100.75 C119.41772331 102.49128964 120.33546475 104.23257013 121.25448608 105.97317505 C122.20304912 107.77248795 123.14702775 109.5741577 124.09082031 111.37597656 C127.12702894 117.15717595 130.25545839 122.88845163 133.375 128.625 C134.46638038 130.63789368 135.55754901 132.6509022 136.6484375 134.6640625 C137.43224226 136.1094018 138.2160756 137.5547256 139 139 C137.7260411 141.03833424 136.38938077 143.03852126 135 145 C134.34 145 133.68 145 133 145 C133.47195801 146.16176758 133.94391602 147.32353516 134.43017578 148.52050781 C139.30203016 161.56435498 138.54761683 177.46575374 139.125 191.25 C139.16735779 192.21336273 139.20971558 193.17672546 139.25335693 194.16928101 C140.09223459 213.45056443 140.22831042 232.70425699 140 252 C139.34 252 138.68 252 138 252 C138.165 252.804375 138.33 253.60875 138.5 254.4375 C139.09247348 258.65887352 139.08506709 262.74664545 139 267 C139.99 267 140.98 267 142 267 C142 271.29 142 275.58 142 280 C141.34 280 140.68 280 140 280 C140.99 295.84 141.98 311.68 143 328 C113.96 328 84.92 328 55 328 C57.99915331 323.50127004 60.96504713 319.34101204 64.375 315.1875 C65.05949219 314.31061523 65.05949219 314.31061523 65.7578125 313.41601562 C69.06011748 309.41336225 70.93033399 308.48957837 76 308 C79.47776094 307.87950296 82.95018475 307.88350632 86.4296875 307.90234375 C87.915186 307.90446617 87.915186 307.90446617 89.43069458 307.90663147 C92.57882773 307.91220748 95.72688852 307.92475558 98.875 307.9375 C101.01562397 307.9425181 103.15624906 307.94708046 105.296875 307.95117188 C110.53127449 307.96216906 115.76563207 307.97888325 121 308 C120.9285376 307.06913574 120.8570752 306.13827148 120.78344727 305.17919922 C120.64507446 303.32319092 120.64507446 303.32319092 120.50390625 301.4296875 C120.41181885 300.21007324 120.31973145 298.99045898 120.22485352 297.73388672 C119.90878411 292.48528143 119.91337057 287.25551904 120 282 C118.68 282 117.36 282 116 282 C115.67 277.71 115.34 273.42 115 269 C115.99 268.67 116.98 268.34 118 268 C117.835 267.195625 117.67 266.39125 117.5 265.5625 C116.907118 261.33821574 116.93086208 257.25443182 117 253 C116.39406006 252.96696777 115.78812012 252.93393555 115.16381836 252.89990234 C105.21592038 252.219178 95.41233385 250.65731087 85.57055664 249.09863281 C82.5466753 248.62250833 79.52057932 248.16267631 76.49414062 247.703125 C74.55973959 247.39943105 72.62548885 247.09477784 70.69140625 246.7890625 C69.79241104 246.65456696 68.89341583 246.52007141 67.96717834 246.38150024 C63.42440855 245.64385075 59.67025983 244.97756541 56 242 C53.47944682 238.33227931 53.71757078 234.48928643 53.74121094 230.20556641 C53.7377063 229.42458084 53.73420166 228.64359528 53.73059082 227.83894348 C53.72179575 225.25972579 53.72761591 222.68078295 53.734375 220.1015625 C53.73302744 218.30561267 53.73108614 216.50966319 53.72857666 214.7137146 C53.72562818 210.94940722 53.72991316 207.18519478 53.73925781 203.42089844 C53.75063576 198.60345689 53.74410165 193.78623861 53.73211288 188.96880531 C53.72487282 185.25927053 53.72719236 181.54978832 53.73236847 177.84025192 C53.73369988 176.06449736 53.7320751 174.28873798 53.72740936 172.51298904 C53.72231066 170.02627241 53.73010188 167.53991282 53.74121094 165.05322266 C53.73716248 164.32366867 53.73311401 163.59411469 53.72894287 162.842453 C53.76481895 158.49116559 54.56111598 155.07880237 56 151 C55.82690382 148.14949677 55.56204557 145.49313164 55.125 142.6875 C54.69873453 139.79573612 54.32350151 136.90508215 54 134 C53.84942139 132.89084229 53.84942139 132.89084229 53.69580078 131.75927734 C53.22571408 125.8749129 54.92043628 122.86335965 58.68359375 118.41015625 C59.32425781 117.69730469 59.96492187 116.98445313 60.625 116.25 C61.24246094 115.52167969 61.85992188 114.79335937 62.49609375 114.04296875 C66.04643847 109.92456888 69.71725884 106.34712693 74 103 C73.79503906 102.32195312 73.59007812 101.64390625 73.37890625 100.9453125 C72.01205849 96.22347477 70.89099624 91.86054359 70.6875 86.9375 C70.37813635 83.06741343 69.43559967 80.61095676 67.37890625 77.328125 C66.56353394 76.02282837 66.56353394 76.02282837 65.73168945 74.69116211 C65.16023193 73.80307861 64.58877441 72.91499512 64 72 C63.18631958 70.72878296 63.18631958 70.72878296 62.35620117 69.43188477 C60.68640323 66.86886452 58.97446698 64.33899948 57.25 61.8125 C56.693125 60.96236328 56.13625 60.11222656 55.5625 59.23632812 C51.2206227 52.90442374 46.49383428 49.02007709 40 45 C39.09556152 44.4217749 38.19112305 43.8435498 37.25927734 43.24780273 C34.37358393 41.41392982 31.47079794 39.61028345 28.5625 37.8125 C26.45159989 36.50035872 24.34092587 35.18785367 22.23046875 33.875 C21.18681152 33.22660156 20.1431543 32.57820313 19.06787109 31.91015625 C14.49268229 29.06149501 9.93190953 26.19028595 5.375 23.3125 C4.6126001 22.83208252 3.8502002 22.35166504 3.06469727 21.85668945 C-0.99522124 19.29207284 -5.01698201 16.6825689 -9 14 C-3.9977221 3.25740319 -3.9977221 3.25740319 0 0 Z M88 155 C89.65 156.32 91.3 157.64 93 159 C96.4444027 161.80184602 98.62730082 164.2870647 99.58984375 168.7109375 C100.64202843 189.08739207 87.46647263 210.14900996 77.1796875 226.8828125 C75.83775423 228.88723886 75.83775423 228.88723886 76 231 C80.94836355 230.59630772 85.89624348 230.18725714 90.84375 229.77319336 C92.52754656 229.63303938 94.21146661 229.49436087 95.89550781 229.35717773 C98.31348974 229.15995129 100.73098065 228.95745524 103.1484375 228.75390625 C103.9036972 228.6934462 104.65895691 228.63298615 105.43710327 228.57069397 C109.34560949 228.29003027 109.34560949 228.29003027 113 227 C112.35198146 201.90308288 112.35198146 201.90308288 111.5 176.8125 C111.44694702 175.34889038 111.44694702 175.34889038 111.39282227 173.85571289 C111.33759399 172.48274048 111.33759399 172.48274048 111.28125 171.08203125 C111.25095703 170.31093018 111.22066406 169.5398291 111.18945312 168.74536133 C110.91853916 164.81955268 110.43456409 160.91107683 110 157 C102.74 156.34 95.48 155.68 88 155 Z M82 166 C81.81824219 166.61746094 81.63648438 167.23492187 81.44921875 167.87109375 C79.74279553 173.62042737 77.93345274 179.32305366 76 185 C73.36 184.67 70.72 184.34 68 184 C66.96045009 192.9035633 66.88071269 201.73332057 66.9375 210.6875 C66.94252972 212.08268067 66.94709 213.47786311 66.95117188 214.87304688 C66.96285249 218.24874437 66.97923167 221.62434826 67 225 C75.33867001 214.45572456 80.43721535 200.11157092 85.1875 187.625 C85.47850586 186.88435303 85.76951172 186.14370605 86.06933594 185.38061523 C87.8981737 180.36948617 88.93761792 175.33151292 88 170 C85.73907185 167.37107214 85.73907185 167.37107214 83 166 C82.67 166 82.34 166 82 166 Z " fill="#FE6741" transform="translate(713,39)"/>
<path d="M0 0 C0.86394882 -0.00671722 1.72789764 -0.01343445 2.61802673 -0.02035522 C5.47498325 -0.03935558 8.33170493 -0.04326095 11.1887207 -0.04541016 C13.17926632 -0.05183844 15.16981098 -0.05856683 17.16035461 -0.06558228 C21.33576648 -0.0775614 25.5110956 -0.08126262 29.68652344 -0.08007812 C35.02171598 -0.07987531 40.35637362 -0.10713613 45.69143963 -0.14162254 C49.80514431 -0.16392991 53.91872128 -0.16791443 58.03248024 -0.16685867 C59.99835866 -0.16921044 61.96424082 -0.17800993 63.93005943 -0.19352341 C66.68942314 -0.21325381 69.44764678 -0.20731709 72.20703125 -0.1953125 C73.00995605 -0.20655151 73.81288086 -0.21779053 74.64013672 -0.22937012 C83.39218681 -0.1332527 90.36161955 3.46787578 96.70043945 9.36474609 C102.85514539 16.22961041 103.75114979 24.24335954 103.6418457 33.15771484 C102.98593925 42.72202346 100.77905434 51.2941803 95.42700195 59.29052734 C96.43762695 60.07427734 97.44825195 60.85802734 98.48950195 61.66552734 C107.19197709 69.22293996 112.4606022 78.93104091 113.65014648 90.45166016 C114.38691584 101.25607094 113.86272716 111.64546418 107.17700195 120.66552734 C101.5539829 126.03295463 96.02334224 129.39906929 88.14527893 129.43096924 C87.29717651 129.43667938 86.4490741 129.44238953 85.57527161 129.44827271 C84.65308334 129.44939056 83.73089508 129.45050842 82.78076172 129.45166016 C81.31426682 129.45910751 81.31426682 129.45910751 79.81814575 129.46670532 C76.58489274 129.48130741 73.35168876 129.48812488 70.1184082 129.49365234 C67.87165831 129.49940436 65.62490843 129.50516209 63.37815857 129.51092529 C58.66811901 129.52142899 53.9580965 129.52727614 49.24804688 129.53076172 C43.21083424 129.53625231 37.17384647 129.56029521 31.13670444 129.58873367 C26.49646849 129.60734775 21.85628691 129.61256495 17.21601677 129.6140976 C14.99005844 129.61712623 12.76410112 129.62516181 10.5381794 129.63828278 C7.42615692 129.65532107 4.31468681 129.65346856 1.20263672 129.64697266 C-0.17760933 129.66079483 -0.17760933 129.66079483 -1.58573914 129.67489624 C-9.96304224 129.6200681 -9.96304224 129.6200681 -13.57299805 126.29052734 C-16.98863498 120.5181887 -17.00727724 115.20722458 -16.97705078 108.61694336 C-16.98391403 107.56563232 -16.99077728 106.51432129 -16.99784851 105.43115234 C-17.01609423 101.96877393 -17.01228207 98.5068496 -17.0065918 95.04443359 C-17.01115459 92.62979485 -17.01646045 90.21515741 -17.0224762 87.80052185 C-17.03140291 82.74432086 -17.02898897 77.68827786 -17.01904297 72.63208008 C-17.00755303 66.1613139 -17.02776809 59.69109341 -17.05696011 53.2203989 C-17.07532949 48.23516898 -17.07502813 43.25006966 -17.06932259 38.26481438 C-17.06916947 35.87945732 -17.07520582 33.49409135 -17.08761406 31.10876656 C-17.10253583 27.77000068 -17.09183718 24.43224083 -17.07470703 21.09350586 C-17.084375 20.11403488 -17.09404297 19.1345639 -17.10400391 18.12541199 C-17.04087056 12.23186736 -16.35296444 7.03225546 -12.57299805 2.29052734 C-8.57865803 -0.23143946 -4.5880862 -0.00511473 0 0 Z M8.42700195 24.29052734 C8.42700195 51.02052734 8.42700195 77.75052734 8.42700195 105.29052734 C27.91762695 105.35240234 27.91762695 105.35240234 47.80200195 105.41552734 C53.96122314 105.44283936 53.96122314 105.44283936 60.24487305 105.47070312 C63.91853165 105.47739108 63.91853165 105.47739108 67.5921936 105.48141479 C69.23128341 105.48449041 70.87036863 105.49153366 72.50942993 105.50167847 C74.98903289 105.51626143 77.4683588 105.51834126 79.94799805 105.51757812 C81.04735467 105.52837245 81.04735467 105.52837245 82.16892052 105.53938484 C86.24900424 105.64579896 86.24900424 105.64579896 89.42700195 103.29052734 C90.49775504 96.00691621 89.40885074 89.49600597 85.42700195 83.29052734 C81.71195995 79.57548534 77.85470769 77.49603816 72.58586121 77.05001831 C71.0303228 77.05668015 71.0303228 77.05668015 69.44335938 77.06347656 C68.26251266 77.06362762 67.08166595 77.06377869 65.86503601 77.06393433 C64.60028946 77.0742569 63.33554291 77.08457947 62.0324707 77.09521484 C60.72997879 77.09804474 59.42748688 77.10087463 58.08552551 77.10379028 C54.63477811 77.11140038 51.18420097 77.131026 47.73352051 77.15319824 C44.20754296 77.17371346 40.6815377 77.1828041 37.15551758 77.19287109 C30.24593568 77.21427464 23.33649454 77.24943516 16.42700195 77.29052734 C16.42700195 69.04052734 16.42700195 60.79052734 16.42700195 52.29052734 C19.89458008 52.32533203 23.3621582 52.36013672 26.93481445 52.39599609 C30.3006915 52.41940583 33.6665594 52.4376144 37.0324707 52.45532227 C39.36812411 52.47038995 41.70374932 52.49084783 44.03930664 52.5168457 C47.40038015 52.55331693 50.76107887 52.57027424 54.12231445 52.58349609 C55.16316193 52.59897995 56.2040094 52.61446381 57.27639771 52.63041687 C63.70094307 52.63190148 68.36859074 52.11170331 73.2902832 47.57177734 C73.76852539 46.98396484 74.24676758 46.39615234 74.73950195 45.79052734 C75.47620117 44.90880859 75.47620117 44.90880859 76.2277832 44.00927734 C78.73878848 40.41044242 78.59076567 36.97682174 78.61450195 32.72802734 C78.62868164 31.57173828 78.64286133 30.41544922 78.6574707 29.22412109 C78.73687388 26.16736348 78.73687388 26.16736348 76.42700195 24.29052734 C73.47132085 23.99665805 73.47132085 23.99665805 69.95776367 24.06347656 C69.28349398 24.06323549 68.60922428 24.06299442 67.91452217 24.06274605 C65.72844444 24.06424075 63.5427063 24.07948025 61.35668945 24.09521484 C60.00846521 24.0981548 58.6602387 24.10019553 57.31201172 24.10131836 C52.30864035 24.11181117 47.30531783 24.13973353 42.30200195 24.16552734 C31.12325195 24.20677734 19.94450195 24.24802734 8.42700195 24.29052734 Z " fill="#000000" transform="translate(626.572998046875,151.70947265625)"/>
<path d="M0 0 C0.67205978 -0.00817749 1.34411957 -0.01635498 2.0365448 -0.02478027 C4.26279835 -0.04960255 6.48898774 -0.06615202 8.71533203 -0.08056641 C9.47966679 -0.08589008 10.24400154 -0.09121376 11.03149796 -0.09669876 C15.08592983 -0.12343082 19.14033107 -0.14279587 23.19482422 -0.15722656 C26.5294172 -0.17050115 29.86338881 -0.19823159 33.19775391 -0.23925781 C37.24080226 -0.28899365 41.28329234 -0.31339838 45.32663345 -0.32045364 C46.85663067 -0.32710505 48.38661846 -0.34216446 49.91643906 -0.36634445 C62.71373291 -0.55689203 74.27902507 1.58359001 84.35205078 10.12255859 C95.05960149 21.22823741 98.02839219 34.16230541 97.84814453 49.13037109 C97.87134766 51.05139648 97.87134766 51.05139648 97.89501953 53.01123047 C97.83812554 66.9715937 94.29050409 76.81033258 84.72705078 86.90380859 C73.65380688 97.36629803 59.14779471 98.51085784 44.68408203 98.38818359 C43.4108609 98.3853537 42.13763977 98.3825238 40.82583618 98.37960815 C37.4754043 98.37037094 34.12525617 98.35246901 30.77490234 98.3302002 C27.34230981 98.3095736 23.90968771 98.30057085 20.47705078 98.29052734 C13.76733843 98.26857199 7.05775782 98.23517369 0.34814453 98.19287109 C0.3192747 94.2137195 0.30139047 90.23459456 0.28564453 86.25537109 C0.27726562 85.1190625 0.26888672 83.98275391 0.26025391 82.81201172 C0.25541992 81.19262695 0.25541992 81.19262695 0.25048828 79.54052734 C0.24263306 78.04017944 0.24263306 78.04017944 0.23461914 76.50952148 C0.34814453 74.19287109 0.34814453 74.19287109 1.34814453 73.19287109 C3.11608011 73.09053427 4.8880512 73.05716248 6.65893555 73.05102539 C7.7942421 73.04399094 8.92954865 73.03695648 10.09925842 73.02970886 C11.3376799 73.02554459 12.57610138 73.02138031 13.85205078 73.01708984 C16.4555744 72.99388096 19.05909004 72.9697632 21.66259766 72.94482422 C25.78149334 72.90850612 29.90024296 72.87872363 34.01928711 72.86694336 C37.98465257 72.8548585 41.94940894 72.81118617 45.91455078 72.76708984 C47.13880264 72.76899826 48.3630545 72.77090668 49.62440491 72.77287292 C56.6502956 72.67276376 61.40979113 72.05680522 67.34814453 68.19287109 C72.16619881 62.13941828 72.55299283 57.40460634 72.59814453 50.00537109 C72.61876953 49.17972656 72.63939453 48.35408203 72.66064453 47.50341797 C72.70498933 40.46922444 71.5767038 34.89060073 66.97314453 29.31787109 C62.52623787 25.71799427 58.81259973 24.94236177 53.15258789 24.90234375 C51.92458969 24.88958405 50.69659149 24.87682434 49.43138123 24.86367798 C48.11356155 24.86145233 46.79574188 24.85922668 45.43798828 24.85693359 C44.06466026 24.8505022 42.6913336 24.84377358 41.31800842 24.83676147 C38.44577862 24.82481261 35.57366891 24.82107844 32.70141602 24.82226562 C29.02362626 24.8224693 25.34660507 24.79510822 21.66899776 24.76072121 C18.83537767 24.7384772 16.00194378 24.7344272 13.16824532 24.73548508 C11.1540925 24.73198332 9.13999778 24.71031471 7.1259613 24.68838501 C5.28869225 24.6976149 5.28869225 24.6976149 3.41430664 24.70703125 C2.33684677 24.70418121 1.2593869 24.70133118 0.14927673 24.69839478 C-2.69762102 25.02582326 -2.69762102 25.02582326 -4.99687195 26.62112427 C-7.53126188 30.55941681 -7.2228476 34.23383633 -7.19775391 38.82666016 C-7.20809158 39.80260132 -7.21842926 40.77854248 -7.2290802 41.78405762 C-7.25857176 45.0090376 -7.26000875 48.2333917 -7.26123047 51.45849609 C-7.27620778 53.6948161 -7.29293397 55.93112502 -7.31134033 58.16741943 C-7.35507618 64.05286153 -7.37502688 69.93815441 -7.39007568 75.82373047 C-7.40962419 81.82967984 -7.45159676 87.83546752 -7.49169922 93.84130859 C-7.56706917 105.62514033 -7.61524738 117.40885511 -7.65185547 129.19287109 C-15.57185547 129.19287109 -23.49185547 129.19287109 -31.65185547 129.19287109 C-31.71971477 115.78839758 -31.77471997 102.38403873 -31.80729198 88.97943211 C-31.8229273 82.7546963 -31.84412686 76.53008442 -31.87817383 70.30541992 C-31.91084297 64.2948326 -31.92872453 58.28436427 -31.9364872 52.27369499 C-31.94201711 49.98405015 -31.95281565 47.69441158 -31.96904564 45.40481758 C-31.99091997 42.19022834 -31.99381817 38.97612667 -31.99243164 35.76147461 C-32.00321747 34.82135529 -32.0140033 33.88123596 -32.02511597 32.91262817 C-31.97764517 22.69736505 -29.24726251 15.84472744 -22.20263672 8.43115234 C-15.7256699 2.74768835 -8.5253048 0.09020552 0 0 Z " fill="#000000" transform="translate(44.65185546875,151.80712890625)"/>
<path d="M0 0 C0.97161072 -0.00637985 1.94322144 -0.0127597 2.9442749 -0.01933289 C3.98392395 -0.02044571 5.023573 -0.02155853 6.09472656 -0.02270508 C7.71680023 -0.02769768 7.71680023 -0.02769768 9.37164307 -0.03279114 C11.65791398 -0.03784817 13.94419225 -0.04019984 16.23046875 -0.04003906 C19.70878439 -0.04221967 23.18677974 -0.06037248 26.66503906 -0.0793457 C28.89160048 -0.08228114 31.1181634 -0.08426493 33.34472656 -0.08520508 C34.89205475 -0.09598335 34.89205475 -0.09598335 36.47064209 -0.10697937 C47.46573253 -0.07260917 55.78292507 1.61183748 64.12207031 9.05151367 C73.95209774 19.08141226 74.53549368 30.65664105 74.48339844 43.99682617 C74.46780884 45.42043457 74.46780884 45.42043457 74.4519043 46.87280273 C74.42283922 49.77149437 74.43135122 52.66836219 74.44433594 55.56713867 C74.43809946 57.43954325 74.42970923 59.31194215 74.41894531 61.18432617 C74.42188095 62.03564117 74.42481659 62.88695618 74.42784119 63.7640686 C74.27668153 73.55290165 71.81525497 81.95995805 64.98535156 89.14526367 C56.09200355 97.41945454 46.81032261 98.60854337 34.98925781 98.57885742 C33.76053452 98.58409927 32.53181122 98.58934113 31.26585388 98.59474182 C28.67813876 98.60113966 26.09039447 98.59985421 23.50268555 98.59130859 C19.56343366 98.58279734 15.62563249 98.61159707 11.68652344 98.64331055 C9.16243533 98.64492285 6.63834467 98.64434448 4.11425781 98.64135742 C2.94729874 98.6525914 1.78033966 98.66382538 0.57801819 98.67539978 C-9.9708964 98.58635823 -19.39847251 95.7614396 -27.01464844 88.14526367 C-35.57008098 77.15628587 -35.36502963 65.13461285 -35.33032227 51.81469727 C-35.32716373 49.28252 -35.35068079 46.75151591 -35.37597656 44.21948242 C-35.42531317 31.81934488 -35.26585786 19.48000546 -26.01464844 10.14526367 C-18.58968611 3.39669543 -10.07105975 0.04516358 0 0 Z M-10.01464844 29.14526367 C-10.61408378 31.10800035 -10.61408378 31.10800035 -10.5480957 33.19189453 C-10.56393204 33.97628403 -10.57976837 34.76067352 -10.59608459 35.5688324 C-10.59112473 36.40745316 -10.58616486 37.24607391 -10.58105469 38.11010742 C-10.58725327 38.98043106 -10.59345184 39.8507547 -10.59983826 40.74745178 C-10.60693301 42.58569217 -10.60376838 44.42399685 -10.59106445 46.26220703 C-10.57721074 49.07013686 -10.61125664 51.87472532 -10.64941406 54.68237305 C-10.65036543 56.47078532 -10.64850551 58.25920175 -10.64355469 60.04760742 C-10.6568129 60.88420395 -10.67007111 61.72080048 -10.68373108 62.58274841 C-10.62042449 66.56073734 -10.27680729 68.7122409 -8.18066406 72.17456055 C-3.44831837 75.12023408 0.79847337 74.84291532 6.27050781 74.77416992 C7.36374863 74.77658188 8.45698944 74.77899384 9.58335876 74.78147888 C11.89065179 74.7805008 14.1979684 74.76711671 16.50512695 74.7421875 C20.03905777 74.70784912 23.57049234 74.72153976 27.10449219 74.7409668 C29.34734138 74.73406923 31.59018412 74.72439767 33.83300781 74.71166992 C34.89036636 74.71662979 35.94772491 74.72158966 37.03712463 74.72669983 C42.68774889 74.72634539 42.68774889 74.72634539 47.61987305 72.29736328 C50.27816529 68.10768939 50.14605943 64.16368134 50.15332031 59.37182617 C50.15664871 58.61106781 50.15997711 57.85030945 50.16340637 57.0664978 C50.16846623 55.45766809 50.17081499 53.8488279 50.1706543 52.23999023 C50.17283724 49.78636237 50.19099274 47.3331868 50.20996094 44.87963867 C50.21289582 43.31453604 50.21487998 41.74943127 50.21582031 40.18432617 C50.22300583 39.45396149 50.23019135 38.7235968 50.2375946 37.97109985 C50.21961928 33.93586043 49.95393618 30.70715227 47.98535156 27.14526367 C44.73472921 24.97818211 43.78870977 24.88706054 40.02661133 24.85473633 C39.01869034 24.84197662 38.01076935 24.82921692 36.9723053 24.81607056 C35.34100929 24.81273209 35.34100929 24.81273209 33.67675781 24.80932617 C32.55849106 24.80266937 31.4402243 24.79601257 30.28807068 24.78915405 C27.9218002 24.77902358 25.55550113 24.77433715 23.18920898 24.7746582 C19.5654403 24.7702849 15.94288906 24.73396726 12.31933594 24.69604492 C10.02181407 24.69017697 7.7242864 24.68620743 5.42675781 24.68432617 C4.34125137 24.66995514 3.25574493 24.65558411 2.13734436 24.64077759 C0.62073463 24.65000748 0.62073463 24.65000748 -0.92651367 24.65942383 C-1.81459213 24.65657379 -2.70267059 24.65372375 -3.61766052 24.65078735 C-6.83950377 25.31542366 -8.02542006 26.56782774 -10.01464844 29.14526367 Z " fill="#000000" transform="translate(515.0146484375,182.854736328125)"/>
<path d="M0 0 C1.60222412 -0.00430527 1.60222412 -0.00430527 3.23681641 -0.00869751 C5.47884659 -0.01072477 7.72089501 -0.00528943 9.96289062 0.00732422 C13.3662933 0.02339638 16.76850862 0.00742887 20.171875 -0.01171875 C22.36458592 -0.00973608 24.5572961 -0.00589192 26.75 0 C27.75240723 -0.00607269 28.75481445 -0.01214539 29.78759766 -0.0184021 C40.46902315 0.08630245 50.14779239 2.27781337 58.375 9.3984375 C65.83637698 17.43125473 68.06963341 25.5341469 67.71875 36.3828125 C67.09873883 45.78041038 63.35677734 53.12908642 56.375 59.3984375 C47.93157101 66.15318069 38.70916197 66.70410714 28.21484375 66.59375 C26.66912437 66.58950516 26.66912437 66.58950516 25.09217834 66.58517456 C21.83216257 66.57406613 18.57243138 66.54897913 15.3125 66.5234375 C13.0891967 66.51339563 10.86588906 66.5042719 8.64257812 66.49609375 C3.2198568 66.47586726 -2.20225667 66.43670068 -7.625 66.3984375 C-7.625 58.4784375 -7.625 50.5584375 -7.625 42.3984375 C-2.60539062 42.35976562 -2.60539062 42.35976562 2.515625 42.3203125 C5.7557823 42.2819027 8.99577989 42.23673891 12.23583984 42.19091797 C14.48804096 42.16268839 16.74034152 42.1414838 18.99267578 42.12744141 C22.23001083 42.1060399 25.46614774 42.05940255 28.703125 42.0078125 C29.71054749 42.00658386 30.71796997 42.00535522 31.75592041 42.00408936 C37.25525416 41.96604004 37.25525416 41.96604004 42.00878906 39.48535156 C44.2012241 36.13636394 44.17532509 33.25743076 43.375 29.3984375 C41.16759319 26.42985593 39.88902627 25.56977959 36.375 24.3984375 C34.9133199 24.3024188 33.44772303 24.26035363 31.98291016 24.25317383 C31.09834137 24.24679398 30.21377258 24.24041412 29.30239868 24.23384094 C28.34924774 24.23272812 27.3960968 24.2316153 26.4140625 24.23046875 C25.43134369 24.22714035 24.44862488 24.22381195 23.43612671 24.22038269 C21.35651111 24.21531871 19.27688738 24.2129742 17.19726562 24.21313477 C14.01939455 24.21095083 10.84187203 24.19279645 7.6640625 24.17382812 C5.64323035 24.17089358 3.62239656 24.16890919 1.6015625 24.16796875 C0.65246002 24.16078323 -0.29664246 24.15359772 -1.27450562 24.14619446 C-7.72593313 24.0727278 -7.72593313 24.0727278 -13.625 26.3984375 C-16.54871517 29.97764949 -15.96717026 34.73944345 -15.99609375 39.14453125 C-16.00512222 39.99265884 -16.0141507 40.84078644 -16.02345276 41.71461487 C-16.03793901 43.50575234 -16.04683796 45.29694253 -16.05053711 47.08813477 C-16.06244514 49.8233363 -16.11165317 52.55628921 -16.16210938 55.29101562 C-16.17157294 57.03384319 -16.17880829 58.77668456 -16.18359375 60.51953125 C-16.20312607 61.334254 -16.22265839 62.14897675 -16.24278259 62.98838806 C-16.21140028 66.95147747 -15.88665069 68.97840674 -13.74951172 72.40917969 C-9.22520904 75.28963118 -5.34001127 75.12659153 -0.07421875 75.10546875 C0.93972458 75.12059006 1.95366791 75.13571136 2.99833679 75.15129089 C6.22828376 75.19418633 9.45729649 75.20300797 12.6875 75.2109375 C14.88088424 75.23408027 17.07424625 75.25944514 19.26757812 75.28710938 C24.63722809 75.35415381 30.00427163 75.37509573 35.375 75.3984375 C35.375 82.9884375 35.375 90.5784375 35.375 98.3984375 C28.43666217 98.4906073 21.5004755 98.57014701 14.56201172 98.61816406 C12.20516739 98.63819482 9.84837222 98.66542742 7.49169922 98.70019531 C4.09069638 98.74908922 0.6903545 98.77149252 -2.7109375 98.7890625 C-4.27405167 98.82003021 -4.27405167 98.82003021 -5.8687439 98.85162354 C-15.38187912 98.85449687 -24.62960988 96.15437661 -31.625 89.3984375 C-38.42006898 81.06545453 -39.93596908 73.53461005 -39.9609375 63.0390625 C-39.9675943 62.05403748 -39.9742511 61.06901245 -39.98110962 60.05413818 C-39.99119943 57.97654069 -39.99592778 55.89891103 -39.99560547 53.82128906 C-39.9999674 50.67197135 -40.03629596 47.52406924 -40.07421875 44.375 C-40.15194294 30.61009412 -39.53361763 18.90540161 -29.625 8.3984375 C-21.63226438 0.70693564 -10.57459263 -0.06406204 0 0 Z " fill="#000000" transform="translate(196.625,182.6015625)"/>
<path d="M0 0 C1.08984695 -0.0066568 2.17969391 -0.0133136 3.30256653 -0.02017212 C5.6011894 -0.03026015 7.89984134 -0.03499034 10.19848633 -0.03466797 C13.67905097 -0.03902745 17.1583322 -0.07535242 20.63867188 -0.11328125 C49.7684087 -0.2619624 49.7684087 -0.2619624 60.51953125 10.3359375 C66.39177287 16.60890952 68.61912606 24.35824744 68.89453125 32.8359375 C68.58135655 42.10068902 65.71112601 50.34197625 59.51953125 57.3359375 C49.53877655 65.556418 39.60160819 66.5035665 27.11328125 66.43359375 C26.14797485 66.4321788 25.18266846 66.43076385 24.18811035 66.42930603 C21.1318846 66.4237483 18.07573452 66.4112038 15.01953125 66.3984375 C12.93619898 66.39341703 10.85286555 66.38885508 8.76953125 66.38476562 C3.68614594 66.37464742 -1.39707759 66.35506397 -6.48046875 66.3359375 C-6.48046875 58.4159375 -6.48046875 50.4959375 -6.48046875 42.3359375 C-3.12246094 42.29855469 0.23554687 42.26117188 3.6953125 42.22265625 C6.94204279 42.17646553 10.18865665 42.12522288 13.43530273 42.07348633 C15.69434556 42.04020064 17.95347228 42.01218017 20.21264648 41.98950195 C23.45723273 41.95602324 26.70104758 41.90371032 29.9453125 41.84765625 C31.46418816 41.83807137 31.46418816 41.83807137 33.01374817 41.82829285 C33.95449692 41.80849869 34.89524567 41.78870453 35.86450195 41.76831055 C36.69279007 41.75720749 37.52107819 41.74610443 38.37446594 41.73466492 C41.05160518 41.23703493 41.91229711 40.51056048 43.51953125 38.3359375 C44.97193697 32.60950401 44.97193697 32.60950401 42.76953125 27.3984375 C39.64408743 24.53344733 37.20823926 24.21067593 33.12744141 24.19067383 C32.24287262 24.18429398 31.35830383 24.17791412 30.44692993 24.17134094 C29.49377899 24.17022812 28.54062805 24.1691153 27.55859375 24.16796875 C26.57587494 24.16464035 25.59315613 24.16131195 24.58065796 24.15788269 C22.50104236 24.15281871 20.42141863 24.1504742 18.34179688 24.15063477 C15.1639258 24.14845083 11.98640328 24.13029645 8.80859375 24.11132812 C6.7877616 24.10839358 4.76692781 24.10640919 2.74609375 24.10546875 C1.79699127 24.09828323 0.84788879 24.09109772 -0.12997437 24.08369446 C-6.56006012 24.04719821 -6.56006012 24.04719821 -12.48046875 26.3359375 C-14.49915122 29.36396121 -14.73446977 29.97669734 -14.77099609 33.37670898 C-14.7837558 34.18442245 -14.7965155 34.99213593 -14.80966187 35.82432556 C-14.81188751 36.69311844 -14.81411316 37.56191132 -14.81640625 38.45703125 C-14.82639145 39.80149071 -14.82639145 39.80149071 -14.83657837 41.17311096 C-14.84670245 43.06859281 -14.85139546 44.96411028 -14.85107422 46.85961914 C-14.85544731 49.75922352 -14.89176838 52.65730562 -14.9296875 55.55664062 C-14.93555573 57.39843229 -14.93952508 59.24023119 -14.94140625 61.08203125 C-14.95577728 61.9487999 -14.97014832 62.81556854 -14.98495483 63.70860291 C-14.95782195 67.28412673 -14.82385704 69.69539336 -13.11865234 72.8762207 C-8.85657217 75.23444552 -4.60157113 74.93946706 0.19140625 74.9453125 C1.22896057 74.96184875 2.26651489 74.97838501 3.33551025 74.99542236 C6.64691035 75.04397735 9.95785096 75.06529052 13.26953125 75.0859375 C15.51564821 75.11409082 17.7617437 75.14401734 20.0078125 75.17578125 C25.51193168 75.25307487 31.01459036 75.29352655 36.51953125 75.3359375 C36.51953125 82.9259375 36.51953125 90.5159375 36.51953125 98.3359375 C29.59949967 98.42817043 22.68163293 98.50769069 15.76147461 98.55566406 C13.41146587 98.57567925 11.06150629 98.60289994 8.71166992 98.63769531 C5.31807258 98.68665874 1.92513829 98.70900809 -1.46875 98.7265625 C-2.50566483 98.74720764 -3.54257965 98.76785278 -4.61091614 98.78912354 C-14.6206284 98.79214708 -23.38478865 96.3495153 -30.7578125 89.33984375 C-35.42970388 83.9051946 -38.57411687 77.77344136 -38.6574707 70.56420898 C-38.67030594 69.5956749 -38.68314117 68.62714081 -38.69636536 67.6292572 C-38.70375229 66.58242264 -38.71113922 65.53558807 -38.71875 64.45703125 C-38.72682175 63.37519058 -38.73489349 62.29334991 -38.74320984 61.1787262 C-38.75704991 58.8847107 -38.76777241 56.59067463 -38.77563477 54.29663086 C-38.79278257 50.81128023 -38.83666296 47.3268943 -38.88085938 43.84179688 C-38.89099236 41.60938195 -38.89950657 39.37695898 -38.90625 37.14453125 C-38.92375809 36.1118663 -38.94126617 35.07920135 -38.95930481 34.01524353 C-38.9302414 24.17435451 -36.20390214 16.27258362 -29.3984375 9.08984375 C-20.68279472 1.11973457 -11.42126139 0.02459596 0 0 Z " fill="#000000" transform="translate(1015.48046875,182.6640625)"/>
<path d="M0 0 C1.34904632 0.00748595 2.69810371 0.0131677 4.04716492 0.01715088 C7.55064392 0.03222287 11.05343019 0.07133735 14.55664062 0.1159668 C18.15029537 0.15732495 21.74406509 0.17524722 25.33789062 0.1953125 C32.35447262 0.23785631 39.37047676 0.30804735 46.38671875 0.390625 C46.38671875 8.640625 46.38671875 16.890625 46.38671875 25.390625 C26.25671875 25.720625 6.12671875 26.050625 -14.61328125 26.390625 C-14.61328125 28.040625 -14.61328125 29.690625 -14.61328125 31.390625 C-14.05697525 31.39649124 -13.50066925 31.40235748 -12.92750549 31.40840149 C-7.1027946 31.47266387 -1.27861956 31.5571655 4.5456543 31.65307617 C6.71517848 31.68619498 8.88478613 31.71426693 11.05444336 31.73706055 C14.18509264 31.77084712 17.31498601 31.82317478 20.4453125 31.87890625 C21.40505478 31.88529617 22.36479706 31.8916861 23.35362244 31.89826965 C32.93431848 32.10434051 41.05689079 34.35300252 48.16796875 41.07421875 C55.85407463 49.1674277 57.99187057 57.20849478 57.85961914 68.12817383 C57.51526329 76.50749962 55.06484551 83.56378487 49.296875 89.7890625 C42.03289021 95.87952009 34.73495169 98.52067506 25.41503906 98.50415039 C24.72195145 98.50429642 24.02886383 98.50444244 23.31477356 98.5045929 C21.03143142 98.50389807 18.74817158 98.49612585 16.46484375 98.48828125 C14.8787236 98.48641554 13.29260287 98.48499236 11.70648193 98.48399353 C7.5373576 98.48018038 3.36826825 98.47036037 -0.80084229 98.45928955 C-5.05732754 98.44904957 -9.31381847 98.44449037 -13.5703125 98.43945312 C-21.91798657 98.42873701 -30.26562552 98.41114995 -38.61328125 98.390625 C-38.61328125 90.470625 -38.61328125 82.550625 -38.61328125 74.390625 C-36.60459961 74.3812793 -34.59591797 74.37193359 -32.52636719 74.36230469 C-25.88851968 74.32853235 -19.250983 74.27298233 -12.61338425 74.20672226 C-8.58908206 74.16721833 -4.56499962 74.13504443 -0.54052734 74.11962891 C3.34361116 74.1044811 7.22714563 74.07007014 11.11101532 74.02231598 C12.59251403 74.00748258 14.07409897 73.99958286 15.55567169 73.99874115 C17.63184446 73.9963754 19.70634252 73.96933294 21.78222656 73.93652344 C22.96359192 73.92764099 24.14495728 73.91875854 25.36212158 73.90960693 C28.98346177 73.28823158 30.16892989 72.26310426 32.38671875 69.390625 C33.03394581 66.53295298 32.67093978 64.37494586 32.38671875 61.390625 C30.66445379 58.14212523 30.66445379 58.14212523 27.38671875 57.390625 C25.92081109 57.29626503 24.45110462 57.25532892 22.98217773 57.2487793 C22.09372665 57.24174484 21.20527557 57.23471039 20.28990173 57.22746277 C19.33056229 57.22329849 18.37122284 57.21913422 17.3828125 57.21484375 C15.34178673 57.1916304 13.30077109 57.16751247 11.25976562 57.14257812 C8.04965589 57.10759255 4.83991508 57.07819098 1.62963867 57.06469727 C-1.47392454 57.04910629 -4.57641268 57.00881117 -7.6796875 56.96484375 C-9.09744225 56.96770638 -9.09744225 56.96770638 -10.5438385 56.97062683 C-19.00829259 56.81732174 -27.54327093 54.63406418 -33.61328125 48.390625 C-39.60488218 40.54197817 -41.28029061 33.15667576 -40.2109375 23.421875 C-38.84787967 16.50858823 -35.6515857 9.98940286 -29.87992859 5.73919678 C-20.68202152 0.26678046 -10.40894417 -0.16958134 0 0 Z " fill="#000000" transform="translate(1135.61328125,182.609375)"/>
<path d="M0 0 C8.25 0 16.5 0 25 0 C25 10.23 25 20.46 25 31 C38.2 31 51.4 31 65 31 C65 39.25 65 47.5 65 56 C51.8 56 38.6 56 25 56 C25 80.09 25 104.18 25 129 C16.75 129 8.5 129 0 129 C0 104.91 0 80.82 0 56 C-9.9 56 -19.8 56 -30 56 C-30 47.75 -30 39.5 -30 31 C-20.1 31 -10.2 31 0 31 C0 20.77 0 10.54 0 0 Z " fill="#000000" transform="translate(899,152)"/>
<path d="M0 0 C8.25 0 16.5 0 25 0 C25 10.23 25 20.46 25 31 C38.2 31 51.4 31 65 31 C65 39.25 65 47.5 65 56 C51.8 56 38.6 56 25 56 C25 80.09 25 104.18 25 129 C16.75 129 8.5 129 0 129 C0 104.91 0 80.82 0 56 C-9.9 56 -19.8 56 -30 56 C-30 47.75 -30 39.5 -30 31 C-20.1 31 -10.2 31 0 31 C0 20.77 0 10.54 0 0 Z " fill="#000000" transform="translate(303,152)"/>
<path d="M0 0 C1.83899872 0.00636726 1.83899872 0.00636726 3.71514893 0.01286316 C7.58637545 0.02950021 11.45705891 0.06712465 15.328125 0.10546875 C17.97134659 0.12053492 20.61457643 0.13421992 23.2578125 0.14648438 C29.6982883 0.17678774 36.13760714 0.23554009 42.578125 0.29296875 C42.578125 8.54296875 42.578125 16.79296875 42.578125 25.29296875 C39.96620239 25.3069873 39.96620239 25.3069873 37.30151367 25.32128906 C31.54973142 25.35680305 25.79827645 25.41059224 20.04677868 25.47687149 C16.55940551 25.51638941 13.07228644 25.54855615 9.5847168 25.56396484 C5.57559525 25.58199926 1.56742395 25.63193004 -2.44140625 25.68359375 C-4.32119926 25.68543671 -4.32119926 25.68543671 -6.2389679 25.68731689 C-7.39994492 25.70703552 -8.56092194 25.72675415 -9.75708008 25.74707031 C-11.29263298 25.76039398 -11.29263298 25.76039398 -12.85920715 25.77398682 C-15.49381571 26.08497408 -15.49381571 26.08497408 -17.24890137 27.90856934 C-18.79937461 31.06034308 -18.82173092 33.47740834 -18.85424805 36.98925781 C-18.8644397 37.65308472 -18.87463135 38.31691162 -18.88513184 39.00085449 C-18.91523597 41.18685371 -18.92452332 43.37241457 -18.93359375 45.55859375 C-18.95044245 47.0774684 -18.96859295 48.59632912 -18.98799133 50.11517334 C-19.03547718 54.10668587 -19.06529547 58.09814193 -19.09143066 62.08984375 C-19.12124347 66.16547803 -19.16777129 70.24091776 -19.21289062 74.31640625 C-19.29890774 82.30851432 -19.36471448 90.30060214 -19.421875 98.29296875 C-27.341875 98.29296875 -35.261875 98.29296875 -43.421875 98.29296875 C-43.51260561 89.09532776 -43.58583713 79.89798887 -43.62912369 70.69999981 C-43.64990957 66.4280032 -43.67806027 62.15633129 -43.72363281 57.88452148 C-43.76741489 53.75422329 -43.7910796 49.62423544 -43.80138397 45.49372292 C-43.80871778 43.92580093 -43.82303747 42.35789399 -43.84479523 40.79010582 C-43.99614797 29.42164345 -43.42651774 18.441453 -35.1015625 9.78515625 C-25.07418105 0.8771104 -12.95871071 -0.17252921 0 0 Z " fill="#000000" transform="translate(425.421875,182.70703125)"/>
<path d="M0 0 C1.12921875 0.04898438 2.2584375 0.09796875 3.421875 0.1484375 C4.65679688 0.19226563 5.89171875 0.23609375 7.1640625 0.28125 C8.50019538 0.35867821 9.83613441 0.43951327 11.171875 0.5234375 C12.2222998 0.58289551 12.2222998 0.58289551 13.29394531 0.64355469 C17.59060463 0.88913421 21.88123847 1.18691699 26.171875 1.5234375 C26.171875 2.1834375 26.171875 2.8434375 26.171875 3.5234375 C27.1928125 3.8328125 27.1928125 3.8328125 28.234375 4.1484375 C33.2383403 6.49071913 37.11521612 9.93844918 40.171875 14.5234375 C43.80489543 36.91541921 27.04348963 61.18138377 16.171875 79.5234375 C17.161875 79.0284375 17.161875 79.0284375 18.171875 78.5234375 C20.77961314 78.2151573 23.37290445 77.95552297 25.98828125 77.734375 C26.75994125 77.66683014 27.53160126 77.59928528 28.3266449 77.5296936 C29.95806337 77.38816655 31.5896676 77.2487672 33.22143555 77.11132812 C35.72836478 76.89894667 38.23425886 76.67644679 40.74023438 76.453125 C42.32286402 76.31709438 43.90554482 76.18165738 45.48828125 76.046875 C46.24242813 75.97922943 46.99657501 75.91158386 47.77357483 75.84188843 C49.57010957 75.69460862 51.37108054 75.60323558 53.171875 75.5234375 C56.3431815 78.694744 55.22510297 87.3083666 55.2421875 91.67773438 C55.23154022 94.95975871 55.20165968 98.24153783 55.171875 101.5234375 C43.85351373 100.27987116 32.59878212 98.77868814 21.35595703 96.97387695 C18.8833259 96.57979362 16.40859951 96.20111285 13.93359375 95.82226562 C12.34099633 95.56864536 10.7485423 95.31412266 9.15625 95.05859375 C8.42605652 94.94910904 7.69586304 94.83962433 6.94354248 94.7268219 C2.76263827 94.03494889 -0.46184696 93.14246985 -3.828125 90.5234375 C-6.35723085 86.8619948 -6.11721566 82.99596571 -6.1027832 78.71313477 C-6.1104496 77.53924698 -6.1104496 77.53924698 -6.11827087 76.34164429 C-6.13215788 73.75763273 -6.13121081 71.17388816 -6.12890625 68.58984375 C-6.13279363 66.79149781 -6.13712839 64.99315279 -6.14189148 63.19480896 C-6.14935174 59.42631046 -6.14906379 55.65790564 -6.14379883 51.8894043 C-6.138004 47.06282429 -6.15493638 42.23662799 -6.1781435 37.41011143 C-6.19288314 33.69632224 -6.19375224 29.98262543 -6.19063377 26.26881218 C-6.19114686 24.48943255 -6.19638215 22.71004773 -6.20644569 20.93069649 C-6.21879754 18.44125637 -6.21202629 15.95256314 -6.20043945 13.46313477 C-6.21190506 12.36341087 -6.21190506 12.36341087 -6.22360229 11.24147034 C-6.17043892 6.06756324 -5.71426588 1.05761275 0 0 Z M22.171875 14.5234375 C21.99011719 15.14089844 21.80835938 15.75835937 21.62109375 16.39453125 C19.91467053 22.14386487 18.10532774 27.84649116 16.171875 33.5234375 C13.531875 33.1934375 10.891875 32.8634375 8.171875 32.5234375 C7.13232509 41.4270008 7.05258769 50.25675807 7.109375 59.2109375 C7.11440472 60.60611817 7.118965 62.00130061 7.12304688 63.39648438 C7.13472749 66.77218187 7.15110667 70.14778576 7.171875 73.5234375 C15.51054501 62.97916206 20.60909035 48.63500842 25.359375 36.1484375 C25.65038086 35.40779053 25.94138672 34.66714355 26.24121094 33.90405273 C28.0700487 28.89292367 29.10949292 23.85495042 28.171875 18.5234375 C25.91094685 15.89450964 25.91094685 15.89450964 23.171875 14.5234375 C22.841875 14.5234375 22.511875 14.5234375 22.171875 14.5234375 Z " fill="#302F2F" transform="translate(772.828125,190.4765625)"/>
<path d="M0 0 C4.7555295 7.13329426 4.52409955 16.49520151 5.0625 24.8125 C5.14483887 26.04170166 5.22717773 27.27090332 5.31201172 28.53735352 C6.95345029 54.03165734 7.13725674 79.46602384 7 105 C6.34 105 5.68 105 5 105 C5.165 105.804375 5.33 106.60875 5.5 107.4375 C6.09247348 111.65887352 6.08506709 115.74664545 6 120 C6.99 120 7.98 120 9 120 C9 124.29 9 128.58 9 133 C8.34 133 7.68 133 7 133 C7.99 148.84 8.98 164.68 10 181 C-19.04 181 -48.08 181 -78 181 C-75.00084669 176.50127004 -72.03495287 172.34101204 -68.625 168.1875 C-68.16867187 167.60291016 -67.71234375 167.01832031 -67.2421875 166.41601562 C-63.93988252 162.41336225 -62.06966601 161.48957837 -57 161 C-53.52223906 160.87950296 -50.04981525 160.88350632 -46.5703125 160.90234375 C-45.084814 160.90446617 -45.084814 160.90446617 -43.56930542 160.90663147 C-40.42117227 160.91220748 -37.27311148 160.92475558 -34.125 160.9375 C-31.98437603 160.9425181 -29.84375094 160.94708046 -27.703125 160.95117188 C-22.46872551 160.96216906 -17.23436793 160.97888325 -12 161 C-12.0714624 160.06913574 -12.1429248 159.13827148 -12.21655273 158.17919922 C-12.30880127 156.94186035 -12.4010498 155.70452148 -12.49609375 154.4296875 C-12.63422485 152.60026611 -12.63422485 152.60026611 -12.77514648 150.73388672 C-13.09121589 145.48528143 -13.08662943 140.25551904 -13 135 C-14.32 135 -15.64 135 -17 135 C-17.33 130.71 -17.66 126.42 -18 122 C-17.01 121.67 -16.02 121.34 -15 121 C-15.2475 119.824375 -15.2475 119.824375 -15.5 118.625 C-16.13332036 114.03342742 -16.06262932 109.63456974 -16 105 C-9.73 105 -3.46 105 3 105 C1.821961 67.98593964 1.821961 67.98593964 0 31 C-0.10610596 29.15063843 -0.10610596 29.15063843 -0.21435547 27.26391602 C-0.75341538 18.77519687 -1.78609601 10.41482957 -3 2 C-2.01 1.34 -1.02 0.68 0 0 Z " fill="#000000" transform="translate(846,186)"/>
<path d="M0 0 C3 2 3 2 3.69311523 4.26220703 C4.9625899 12.77702909 5.60339418 21.28531005 6.0625 29.875 C6.14534629 31.3528828 6.22852099 32.83074722 6.31201172 34.30859375 C6.47525876 37.2247141 6.63391112 40.14102937 6.78857422 43.05761719 C6.96425434 46.33346317 7.15252425 49.60808984 7.34765625 52.8828125 C8.26614808 69.24421361 8.08934806 85.61952217 8 102 C-2.395 102.495 -2.395 102.495 -13 103 C-15.96139058 72.04359715 -17.07191851 41.0765671 -18 10 C-12.06 6.7 -6.12 3.4 0 0 Z " fill="#FD6741" transform="translate(841,189)"/>
<path d="M0 0 C3.45405839 1.29751591 6.53113236 2.8044157 9.67578125 4.73046875 C10.57466064 5.27888428 11.47354004 5.8272998 12.3996582 6.39233398 C13.360896 6.98473877 14.32213379 7.57714355 15.3125 8.1875 C16.31563232 8.80246338 17.31876465 9.41742676 18.35229492 10.05102539 C21.57169039 12.0284079 24.78645257 14.01312927 28 16 C29.07636719 16.66451172 30.15273438 17.32902344 31.26171875 18.01367188 C34.44823172 19.98362109 37.63117248 21.95918919 40.8125 23.9375 C41.78292236 24.53908936 42.75334473 25.14067871 43.75317383 25.76049805 C46.51604806 27.48613201 49.2602261 29.23796794 52 31 C52.88945313 31.55518311 53.77890625 32.11036621 54.6953125 32.68237305 C60.79263815 36.66174647 64.54025009 40.79053792 68.375 46.9375 C69.47781981 48.61762715 70.58334443 50.29598164 71.69140625 51.97265625 C72.23941895 52.81070801 72.78743164 53.64875977 73.35205078 54.51220703 C75.90896678 58.37220318 78.57861323 62.13886384 81.3125 65.875 C81.76737793 66.52202881 82.22225586 67.16905762 82.69091797 67.83569336 C85.76337262 72.001986 88.89991644 74.48248158 93.44995117 76.96142578 C93.96146729 77.30415527 94.4729834 77.64688477 95 78 C95 78.66 95 79.32 95 80 C91.56853286 82.01048951 88.12889088 84.00655245 84.6875 86 C83.71103516 86.57234375 82.73457031 87.1446875 81.72851562 87.734375 C80.79072266 88.27578125 79.85292969 88.8171875 78.88671875 89.375 C78.02264404 89.87773437 77.15856934 90.38046875 76.26831055 90.8984375 C74 92 74 92 71 92 C70.99613281 91.09121094 70.99613281 91.09121094 70.9921875 90.1640625 C70.76226263 85.1823569 70.04521498 81.53491495 67.3671875 77.28515625 C66.82529785 76.42116211 66.2834082 75.55716797 65.72509766 74.66699219 C65.15581543 73.78688477 64.5865332 72.90677734 64 72 C63.45778809 71.1534082 62.91557617 70.30681641 62.35693359 69.43457031 C60.68735134 66.87030491 58.97498766 64.33976232 57.25 61.8125 C56.693125 60.96236328 56.13625 60.11222656 55.5625 59.23632812 C51.2206227 52.90442374 46.49383428 49.02007709 40 45 C39.09556152 44.4217749 38.19112305 43.8435498 37.25927734 43.24780273 C34.37358393 41.41392982 31.47079794 39.61028345 28.5625 37.8125 C26.45159989 36.50035872 24.34092587 35.18785367 22.23046875 33.875 C21.18681152 33.22660156 20.1431543 32.57820313 19.06787109 31.91015625 C14.49268229 29.06149501 9.93190953 26.19028595 5.375 23.3125 C4.6126001 22.83208252 3.8502002 22.35166504 3.06469727 21.85668945 C-0.99522124 19.29207284 -5.01698201 16.6825689 -9 14 C-3.9977221 3.25740319 -3.9977221 3.25740319 0 0 Z " fill="#605F5F" transform="translate(713,39)"/>
<path d="M0 0 C4.7555295 7.13329426 4.52409955 16.49520151 5.0625 24.8125 C5.14483887 26.04170166 5.22717773 27.27090332 5.31201172 28.53735352 C6.95345029 54.03165734 7.13725674 79.46602384 7 105 C6.34 105 5.68 105 5 105 C5.165 105.804375 5.33 106.60875 5.5 107.4375 C6.09247348 111.65887352 6.08506709 115.74664545 6 120 C6.99 120 7.98 120 9 120 C9 124.29 9 128.58 9 133 C6.01632274 133.99455909 3.7995808 134.19559632 0.67578125 134.31640625 C-0.86625977 134.37924805 -0.86625977 134.37924805 -2.43945312 134.44335938 C-3.51130859 134.48267578 -4.58316406 134.52199219 -5.6875 134.5625 C-6.77095703 134.60568359 -7.85441406 134.64886719 -8.97070312 134.69335938 C-11.64698385 134.79946742 -14.32347511 134.90024055 -17 135 C-17.33 130.71 -17.66 126.42 -18 122 C-16.515 121.505 -16.515 121.505 -15 121 C-15.165 120.21625 -15.33 119.4325 -15.5 118.625 C-16.13332036 114.03342742 -16.06262932 109.63456974 -16 105 C-9.73 105 -3.46 105 3 105 C1.821961 67.98593964 1.821961 67.98593964 0 31 C-0.0707373 29.76709229 -0.14147461 28.53418457 -0.21435547 27.26391602 C-0.75341538 18.77519687 -1.78609601 10.41482957 -3 2 C-2.01 1.34 -1.02 0.68 0 0 Z " fill="#323232" transform="translate(846,186)"/>
<path d="M0 0 C0.54372951 3.05847848 1 5.88772805 1 9 C1.66 9.5775 2.32 10.155 3 10.75 C5.27399759 13.30824729 5.37107667 14.5528101 5.26318359 17.89404297 C4.72872175 22.17072927 3.25316427 26.1434624 1.8125 30.1875 C1.46952881 31.16549561 1.12655762 32.14349121 0.77319336 33.15112305 C-4.18131853 46.80994016 -10.50629597 60.01259194 -17 73 C-17.66 73 -18.32 73 -19 73 C-20.0847754 70.27555107 -20.06133668 69.16658907 -19.03125 66.36889648 C-18.5259375 65.37962158 -18.020625 64.39034668 -17.5 63.37109375 C-16.94530029 62.26233887 -16.39060059 61.15358398 -15.8190918 60.01123047 C-15.52159027 59.42774841 -15.22408875 58.84426636 -14.91757202 58.24310303 C-13.37666244 55.21089309 -11.88343491 52.15566789 -10.39453125 49.09765625 C-9.95086967 48.18657104 -9.95086967 48.18657104 -9.49824524 47.25708008 C-6.98353081 42.04981167 -4.71831062 36.78808792 -2.6875 31.375 C-2.40455078 30.64982178 -2.12160156 29.92464355 -1.83007812 29.17749023 C-0.03563138 24.21204281 0.81487269 19.27436129 0 14 C-1.82271927 11.87644433 -1.82271927 11.87644433 -4 11 C-4.18175781 11.54527344 -4.36351562 12.09054688 -4.55078125 12.65234375 C-5.0786459 14.23593769 -5.60734902 15.81925229 -6.13671875 17.40234375 C-6.70808987 19.12162788 -7.27329331 20.84297514 -7.83203125 22.56640625 C-8.09371094 23.36949219 -8.35539063 24.17257813 -8.625 25 C-8.98464844 26.11375 -8.98464844 26.11375 -9.3515625 27.25 C-10 29 -10 29 -11 30 C-17.72 29.28 -17.72 29.28 -19 28 C-20.35436678 12.65695918 -20.35436678 12.65695918 -15.76171875 6.65625 C-11.50412469 2.65354516 -6.03010637 -2.32569922 0 0 Z " fill="#48484A" transform="translate(800,195)"/>
<path d="M0 0 C7.58828071 3.88792809 14.76076975 8.3095415 21.94116211 12.89355469 C26.87734886 16.03987522 31.83786917 19.14185661 36.83203125 22.1953125 C37.41531693 22.55225189 37.9986026 22.90919128 38.5995636 23.27694702 C41.49027072 25.04495857 44.38338422 26.80878554 47.27954102 28.56787109 C48.33971436 29.21578613 49.3998877 29.86370117 50.4921875 30.53125 C51.43433105 31.10423828 52.37647461 31.67722656 53.34716797 32.26757812 C57.60437426 35.04773051 61.10440875 37.71158001 63.91015625 41.984375 C64.67356323 43.1288208 64.67356323 43.1288208 65.45239258 44.29638672 C65.98372803 45.1060791 66.51506348 45.91577148 67.0625 46.75 C68.21110428 48.45737141 69.36219612 50.16307168 70.515625 51.8671875 C71.38477539 53.15254395 71.38477539 53.15254395 72.27148438 54.46386719 C74.89372503 58.31130164 77.57031864 62.11221398 80.3125 65.875 C80.7669751 66.52178711 81.2214502 67.16857422 81.68969727 67.83496094 C84.76344094 72.00091738 87.89931419 74.48215346 92.44995117 76.96142578 C92.96146729 77.30415527 93.4729834 77.64688477 94 78 C94 78.66 94 79.32 94 80 C92.02 80.99 92.02 80.99 90 82 C80.40996378 76.92916227 75.44308475 69.1407766 69.59277344 60.38183594 C66.87986487 56.32494814 64.11312918 52.30920971 61.3125 48.3125 C60.81451904 47.57088623 60.31653809 46.82927246 59.8034668 46.06518555 C55.96104483 40.59465042 51.70199334 37.40667634 46 34 C44.62417242 33.12051017 43.2504318 32.23774619 41.87890625 31.3515625 C40.44103665 30.4412338 39.00219141 29.53244475 37.5625 28.625 C36.77552734 28.12750244 35.98855469 27.63000488 35.17773438 27.11743164 C30.17141311 23.96354515 25.1396321 20.85325681 20.08984375 17.76953125 C19.50231827 17.41022522 18.91479279 17.05091919 18.3094635 16.6807251 C15.39132783 14.89638928 12.47061873 13.1165528 9.54516602 11.34423828 C8.47838623 10.69310059 7.41160645 10.04196289 6.3125 9.37109375 C5.35988281 8.79286865 4.40726563 8.21464355 3.42578125 7.61889648 C1.32656371 6.21793921 -0.31342494 4.8617899 -2 3 C-1.34 2.01 -0.68 1.02 0 0 Z " fill="#3A3A3A" transform="translate(714,39)"/>
<path d="M0 0 C0.99 0 1.98 0 3 0 C2.83897797 0.50080582 2.67795593 1.00161163 2.51205444 1.51759338 C1.81169921 4.91286998 1.82738828 8.26665304 1.80712891 11.71850586 C1.79895142 12.49134415 1.79077393 13.26418243 1.78234863 14.06044006 C1.7575827 16.61190019 1.74100476 19.16330517 1.7265625 21.71484375 C1.71857698 23.02388766 1.71857698 23.02388766 1.71043015 24.35937691 C1.68374184 28.97517136 1.6643498 33.59093912 1.64990234 38.20678711 C1.6365429 42.02571456 1.60864773 45.84411024 1.56787109 49.6628418 C1.51859951 54.27757424 1.49378893 58.89182307 1.48667526 63.50680733 C1.47995863 65.26390428 1.46472576 67.02099026 1.44078445 68.77793694 C1.40918219 71.23656527 1.40908741 73.69332171 1.41650391 76.15209961 C1.40009857 76.87589813 1.38369324 77.59969666 1.36679077 78.34542847 C1.41483571 82.23954034 1.88898705 83.86273573 4.36988831 86.93029785 C7.23649949 89.18610749 8.98207232 89.84989252 12.55078125 90.44140625 C13.63125732 90.63065674 14.7117334 90.81990723 15.82495117 91.01489258 C16.97584229 91.19560303 18.1267334 91.37631348 19.3125 91.5625 C20.49626221 91.76447998 21.68002441 91.96645996 22.8996582 92.17456055 C26.59696946 92.80139436 30.29808039 93.40105965 34 94 C36.37274257 94.3989851 38.74515079 94.79996468 41.1171875 95.203125 C46.74154594 96.15573306 52.36913224 97.08669788 58 98 C58 98.99 58 99.98 58 101 C46.68163873 99.75643366 35.42690712 98.25525064 24.18408203 96.45043945 C21.7114509 96.05635612 19.23672451 95.67767535 16.76171875 95.29882812 C15.16912133 95.04520786 13.5766673 94.79068516 11.984375 94.53515625 C11.25418152 94.42567154 10.52398804 94.31618683 9.77166748 94.2033844 C5.59076327 93.51151139 2.36627804 92.61903235 -1 90 C-3.52910585 86.3385573 -3.28909066 82.47252821 -3.2746582 78.18969727 C-3.2823246 77.01580948 -3.2823246 77.01580948 -3.29014587 75.81820679 C-3.30403288 73.23419523 -3.30308581 70.65045066 -3.30078125 68.06640625 C-3.30466863 66.26806031 -3.30900339 64.46971529 -3.31376648 62.67137146 C-3.32122674 58.90287296 -3.32093879 55.13446814 -3.31567383 51.3659668 C-3.309879 46.53938679 -3.32681138 41.71319049 -3.3500185 36.88667393 C-3.36475814 33.17288474 -3.36562724 29.45918793 -3.36250877 25.74537468 C-3.36302186 23.96599505 -3.36825715 22.18661023 -3.37832069 20.40725899 C-3.39067254 17.91781887 -3.38390129 15.42912564 -3.37231445 12.93969727 C-3.38378006 11.83997337 -3.38378006 11.83997337 -3.39547729 10.71803284 C-3.35059993 6.35052772 -2.82643248 3.40308514 0 0 Z " fill="#515151" transform="translate(770,191)"/>
<path d="M0 0 C4.7555295 7.13329426 4.52409955 16.49520151 5.0625 24.8125 C5.14483887 26.04170166 5.22717773 27.27090332 5.31201172 28.53735352 C6.95345029 54.03165734 7.13725674 79.46602384 7 105 C6.34 105 5.68 105 5 105 C5.165 105.804375 5.33 106.60875 5.5 107.4375 C6.09247348 111.65887352 6.08506709 115.74664545 6 120 C4.35 120 2.7 120 1 120 C-0.32286246 115.03926578 -0.08893197 110.08888488 0 105 C0.99 105 1.98 105 3 105 C1.82293949 67.98589678 1.82293949 67.98589678 0 31 C-0.0707373 29.76709229 -0.14147461 28.53418457 -0.21435547 27.26391602 C-0.75341538 18.77519687 -1.78609601 10.41482957 -3 2 C-2.01 1.34 -1.02 0.68 0 0 Z " fill="#0B0403" transform="translate(846,186)"/>
<path d="M0 0 C4.44404844 2.16934024 8.63762734 4.70602246 12.875 7.25 C13.74979004 7.77505127 14.62458008 8.30010254 15.52587891 8.84106445 C24.08492937 14.00637481 32.52711661 19.34589526 40.921875 24.7734375 C43.92915736 26.71019878 46.94446427 28.56476175 50.078125 30.2890625 C59.68685072 35.68239704 64.84460866 42.73603213 70.67333984 51.92138672 C71.91085408 53.86032602 73.18606649 55.76426162 74.48828125 57.66015625 C81.14828439 67.39582691 81.14828439 67.39582691 81.0625 74.6875 C81.05347656 75.68136719 81.04445313 76.67523438 81.03515625 77.69921875 C81.02355469 78.45847656 81.01195312 79.21773438 81 80 C79.68 80.33 78.36 80.66 77 81 C76.99613281 80.09121094 76.99613281 80.09121094 76.9921875 79.1640625 C76.76226263 74.1823569 76.04521498 70.53491495 73.3671875 66.28515625 C72.82529785 65.42116211 72.2834082 64.55716797 71.72509766 63.66699219 C71.15581543 62.78688477 70.5865332 61.90677734 70 61 C69.45778809 60.1534082 68.91557617 59.30681641 68.35693359 58.43457031 C66.68735134 55.87030491 64.97498766 53.33976232 63.25 50.8125 C62.693125 49.96236328 62.13625 49.11222656 61.5625 48.23632812 C57.2206227 41.90442374 52.49383428 38.02007709 46 34 C45.09556152 33.4217749 44.19112305 32.8435498 43.25927734 32.24780273 C40.37358393 30.41392982 37.47079794 28.61028345 34.5625 26.8125 C32.45159989 25.50035872 30.34092587 24.18785367 28.23046875 22.875 C27.18681152 22.22660156 26.1431543 21.57820313 25.06787109 20.91015625 C20.49268229 18.06149501 15.93190953 15.19028595 11.375 12.3125 C10.6126001 11.83208252 9.8502002 11.35166504 9.06469727 10.85668945 C5.00477876 8.29207284 0.98301799 5.6825689 -3 3 C-2.01 2.01 -1.02 1.02 0 0 Z " fill="#454545" transform="translate(707,50)"/>
<path d="M0 0 C4.875 4.625 4.875 4.625 6 8 C6.886875 7.5875 7.77375 7.175 8.6875 6.75 C10.3271875 6.37875 10.3271875 6.37875 12 6 C15.90064532 8.5231447 17.96516734 11.15387342 20.09375 15.234375 C20.64337402 16.27287598 21.19299805 17.31137695 21.75927734 18.38134766 C22.33371582 19.49300293 22.9081543 20.6046582 23.5 21.75 C24.41772331 23.49128964 25.33546475 25.23257013 26.25448608 26.97317505 C27.20304912 28.77248795 28.14702775 30.5741577 29.09082031 32.37597656 C32.12702894 38.15717595 35.25545839 43.88845163 38.375 49.625 C39.46638038 51.63789368 40.55754901 53.6509022 41.6484375 55.6640625 C42.43224226 57.1094018 43.2160756 58.5547256 44 60 C42.7260411 62.03833424 41.38938077 64.03852126 40 66 C39.34 66 38.68 66 38 66 C37.505 67.98 37.505 67.98 37 70 C36.34 70 35.68 70 35 70 C34.67 70.66 34.34 71.32 34 72 C31.58214702 73.42621243 29.17199159 74.7633131 26.6875 76.0625 C26.01009766 76.42666016 25.33269531 76.79082031 24.63476562 77.16601562 C21.4257615 78.86305495 18.56567087 80.21772294 15 81 C15 80.34 15 79.68 15 79 C15.93851807 78.47829224 15.93851807 78.47829224 16.89599609 77.94604492 C19.72649787 76.3672025 22.55075839 74.77751135 25.375 73.1875 C26.85226562 72.36668945 26.85226562 72.36668945 28.359375 71.52929688 C29.30039062 70.99755859 30.24140625 70.46582031 31.2109375 69.91796875 C32.08024902 69.43094482 32.94956055 68.9439209 33.84521484 68.44213867 C36.25968962 67.02532962 36.25968962 67.02532962 38 64 C37.66637972 59.84136405 35.94940868 56.67916056 33.97265625 53.0546875 C33.34987793 51.90339355 32.72709961 50.75209961 32.08544922 49.56591797 C31.41149644 48.33541275 30.73717293 47.10511052 30.0625 45.875 C28.68920127 43.35536364 27.31909821 40.8339966 25.94921875 38.3125 C25.60924866 37.68834198 25.26927856 37.06418396 24.91900635 36.42111206 C22.86830168 32.64428314 20.88395166 28.84204735 18.95703125 25 C18.51415771 24.12359863 18.07128418 23.24719727 17.61499023 22.34423828 C16.80909191 20.73942323 16.01492641 19.12864322 15.23461914 17.51123047 C13.64169044 14.36690594 12.4926761 12.29695546 9.43359375 10.453125 C6.15519767 9.84270133 4.0309721 10.73122098 1 12 C0.8453125 11.13375 0.8453125 11.13375 0.6875 10.25 C0.11478737 7.88948084 0.11478737 7.88948084 -1.625 5.9375 C-2.07875 5.298125 -2.5325 4.65875 -3 4 C-2.67 3.01 -2.34 2.02 -2 1 C-1.34 0.67 -0.68 0.34 0 0 Z " fill="#FD4A1D" transform="translate(808,118)"/>
<path d="M0 0 C0.99 0.33 1.98 0.66 3 1 C4.03485877 3.31808364 5.0355414 5.65175298 6 8 C6.66 8.33 7.32 8.66 8 9 C7.42894531 9.4640625 6.85789062 9.928125 6.26953125 10.40625 C3.97486999 12.36163702 1.77185969 14.38536121 -0.3984375 16.47753906 C-1.5015654 17.52618321 -2.6255167 18.55320863 -3.765625 19.56152344 C-9.36368621 24.61233828 -14.38758103 29.64488036 -15.47363281 37.36816406 C-15.75002916 45.29926223 -15.052782 53.14336645 -14 61 C-15.32 60.67 -16.64 60.34 -18 60 C-18.34012937 57.35488678 -18.67221424 54.70914853 -19 52.0625 C-19.09539063 51.32708984 -19.19078125 50.59167969 -19.2890625 49.83398438 C-19.56729329 47.55845398 -19.78844007 45.28262029 -20 43 C-20.09748535 42.25186035 -20.1949707 41.5037207 -20.29541016 40.73291016 C-20.76797804 34.85701886 -19.07526019 31.85826698 -15.31640625 27.41015625 C-14.35541016 26.34087891 -14.35541016 26.34087891 -13.375 25.25 C-12.75753906 24.52167969 -12.14007812 23.79335937 -11.50390625 23.04296875 C-7.95356153 18.92456888 -4.28274116 15.34712693 0 12 C-0.66 8.37 -1.32 4.74 -2 1 C-1.34 0.67 -0.68 0.34 0 0 Z " fill="#FA481B" transform="translate(787,130)"/>
<path d="M0 0 C2.63361256 0.37623037 4.07220172 1.05214568 6.25 2.625 C8.57014659 5.77377037 8.45314716 8.25653481 8 12 C7.16235318 15.47911116 6.01274611 18.81833168 4.8125 22.1875 C4.29804321 23.65449341 4.29804321 23.65449341 3.77319336 25.15112305 C-1.18131853 38.80994016 -7.50629597 52.01259194 -14 65 C-14.66 65 -15.32 65 -16 65 C-17.0847754 62.27555107 -17.06133668 61.16658907 -16.03125 58.36889648 C-15.5259375 57.37962158 -15.020625 56.39034668 -14.5 55.37109375 C-13.94530029 54.26233887 -13.39060059 53.15358398 -12.8190918 52.01123047 C-12.52159027 51.42774841 -12.22408875 50.84426636 -11.91757202 50.24310303 C-10.37666244 47.21089309 -8.88343491 44.15566789 -7.39453125 41.09765625 C-6.95086967 40.18657104 -6.95086967 40.18657104 -6.49824524 39.25708008 C-3.98353081 34.04981167 -1.71831062 28.78808792 0.3125 23.375 C0.59544922 22.64982178 0.87839844 21.92464355 1.16992188 21.17749023 C2.96436862 16.21204281 3.81487269 11.27436129 3 6 C1.17728073 3.87644433 1.17728073 3.87644433 -1 3 C-0.67 2.01 -0.34 1.02 0 0 Z " fill="#AAAAA9" transform="translate(797,203)"/>
<path d="M0 0 C5.28 0 10.56 0 16 0 C16 5.28 16 10.56 16 16 C12.7 16 9.4 16 6 16 C6 11.05 6 6.1 6 1 C4.02 1 2.04 1 0 1 C0 0.67 0 0.34 0 0 Z " fill="#645D5B" transform="translate(830,291)"/>
<path d="M0 0 C6.93 0 13.86 0 21 0 C21 0.66 21 1.32 21 2 C10.605 2.495 10.605 2.495 0 3 C0 2.01 0 1.02 0 0 Z " fill="#F94D22" transform="translate(828,289)"/>
</svg>
